<svg xmlns="http://www.w3.org/2000/svg" version="1.1" xmlns:xlink="http://www.w3.org/1999/xlink" xmlns:svgjs="http://svgjs.dev/svgjs" width="1440" height="560" preserveAspectRatio="none" viewBox="0 0 1440 560">
    <g mask="url(&quot;#SvgjsMask1034&quot;)" fill="none">
        <rect width="1440" height="560" x="0" y="0" fill="url(&quot;#SvgjsLinearGradient1035&quot;)"></rect>
        <path d="M1440 0L1101.63 0L1440 142.5z" fill="rgba(255, 255, 255, .1)"></path>
        <path d="M1101.63 0L1440 142.5L1440 329.13L1016.5200000000001 0z" fill="rgba(255, 255, 255, .075)"></path>
        <path d="M1016.52 0L1440 329.13L1440 396.27L662.23 0z" fill="rgba(255, 255, 255, .05)"></path>
        <path d="M662.23 0L1440 396.27L1440 491.24L487.06000000000006 0z" fill="rgba(255, 255, 255, .025)"></path>
        <path d="M0 560L394.42 560L0 502.85z" fill="rgba(0, 0, 0, .1)"></path>
        <path d="M0 502.85L394.42 560L396.41 560L0 241.40000000000003z" fill="rgba(0, 0, 0, .075)"></path>
        <path d="M0 241.40000000000003L396.41 560L573.1 560L0 197.56000000000003z" fill="rgba(0, 0, 0, .05)"></path>
        <path d="M0 197.56000000000006L573.1 560L1116.02 560L0 129.83000000000004z" fill="rgba(0, 0, 0, .025)"></path>
    </g>
    <defs>
        <mask id="SvgjsMask1034">
            <rect width="1440" height="560" fill="#ffffff"></rect>
        </mask>
        <linearGradient x1="84.72%" y1="139.29%" x2="15.28%" y2="-39.29%" gradientUnits="userSpaceOnUse" id="SvgjsLinearGradient1035">
            <stop stop-color="rgba(1, 4, 9, 1)" offset="0"></stop>
            <stop stop-color="rgba(13, 17, 23, 1)" offset="1"></stop>
        </linearGradient>
    </defs>
</svg>
